<svg preserveAspectRatio="none" width="100%" height="100%" overflow="visible" style="display: block;" viewBox="0 0 21.5239 20.7794" fill="none" xmlns="http://www.w3.org/2000/svg">
<path id="Vector" d="M21.2589 20.7794C20.7724 20.2982 20.4549 19.6723 20.354 18.9955C20.2532 18.3187 20.3744 17.6274 20.6994 17.0252L21.4797 15.553L19.875 15.0672C19.2206 14.8624 18.6509 14.4497 18.2524 13.8917C17.8538 13.3337 17.6482 12.661 17.6667 11.9755V8.95747C17.6654 8.27505 17.8838 7.61032 18.2894 7.06154C18.695 6.51275 19.2664 6.109 19.9192 5.90996L21.5239 5.42413L20.7583 3.95191C20.4428 3.35799 20.3227 2.67963 20.4152 2.01347C20.5078 1.34732 20.8081 0.727359 21.2736 0.241912C20.141 0.0937267 19.0003 0.0150582 17.8581 0.00635339C14.4842 -0.073069 11.1344 0.592985 8.04752 1.957C4.96066 3.32102 2.21283 5.3494 0 7.89747V19.3072C0 19.6976 0.155109 20.0721 0.431204 20.3482C0.707299 20.6243 1.08176 20.7794 1.47222 20.7794H21.2589Z" fill="var(--fill-0, white)"/>
</svg>
