<svg preserveAspectRatio="none" width="100%" height="100%" overflow="visible" style="display: block;" viewBox="0 0 26.7359 26.7503" fill="none" xmlns="http://www.w3.org/2000/svg">
<path id="Vector" d="M26.4411 11.3214L23.4967 10.4381C23.293 9.71083 23.0065 9.00938 22.6428 8.34752L24.115 5.60918C24.1719 5.50755 24.1927 5.38963 24.174 5.27467C24.1553 5.1597 24.0982 5.05447 24.012 4.97613L21.8773 2.82668C21.795 2.74667 21.6902 2.69386 21.577 2.67543C21.4637 2.65699 21.3476 2.67382 21.2442 2.72363L18.5206 4.19585C17.8503 3.83131 17.145 3.53536 16.4153 3.31252L15.5173 0.368072C15.4777 0.259504 15.4056 0.165835 15.3107 0.0999323C15.2158 0.0340299 15.1028 -0.000872604 14.9873 1.65768e-05H11.925C11.8102 0.0032212 11.6992 0.041673 11.607 0.110152C11.5149 0.178631 11.446 0.273821 11.4098 0.382795L10.5264 3.32724C9.78337 3.54543 9.06727 3.84668 8.3917 4.22529L5.72698 2.75307C5.62338 2.69801 5.50509 2.67692 5.38885 2.69277C5.2726 2.70862 5.16428 2.76062 5.0792 2.84141L2.91503 4.9614C2.82982 5.04353 2.77367 5.15117 2.75508 5.26804C2.73648 5.38492 2.75646 5.50467 2.81198 5.60918L4.2842 8.28863C3.8894 8.95339 3.56851 9.65935 3.32726 10.3939L0.382814 11.292C0.271434 11.3242 0.173685 11.392 0.104546 11.4851C0.0354084 11.5781 -0.00130457 11.6913 3.54203e-05 11.8072V14.8253C-0.00130457 14.9412 0.0354084 15.0544 0.104546 15.1475C0.173685 15.2405 0.271434 15.3084 0.382814 15.3406L3.32726 16.2386C3.54806 16.9596 3.84414 17.6554 4.21059 18.3145L2.73837 21.1117C2.68285 21.2162 2.66287 21.3359 2.68147 21.4528C2.70006 21.5697 2.75621 21.6773 2.84142 21.7595L5.03504 23.8942C5.12011 23.975 5.22843 24.027 5.34468 24.0428C5.46092 24.0587 5.57921 24.0376 5.68281 23.9825L8.43587 22.5103C9.0906 22.8636 9.78167 23.145 10.497 23.3495L11.3803 26.3675C11.4174 26.4788 11.4885 26.5757 11.5836 26.6444C11.6787 26.7131 11.793 26.7501 11.9103 26.7503H14.9284C15.0432 26.7471 15.1542 26.7086 15.2464 26.6402C15.3386 26.5717 15.4074 26.4765 15.4436 26.3675L16.327 23.3495C17.0334 23.1463 17.7148 22.8648 18.3586 22.5103L21.1411 23.9825C21.2447 24.0376 21.363 24.0587 21.4793 24.0428C21.5955 24.027 21.7038 23.975 21.7889 23.8942L23.9384 21.7595C24.0192 21.6744 24.0712 21.5661 24.087 21.4498C24.1029 21.3336 24.0818 21.2153 24.0267 21.1117L22.5545 18.3439C22.9058 17.6985 23.1872 17.0174 23.3936 16.3122L26.3381 15.4142C26.4487 15.3786 26.5459 15.3103 26.6169 15.2183C26.6879 15.1263 26.7293 15.0149 26.7356 14.8989V11.8514C26.7392 11.7447 26.7137 11.639 26.6618 11.5456C26.6099 11.4522 26.5337 11.3747 26.4411 11.3214ZM13.4414 18.2703C12.4683 18.2732 11.5161 17.9873 10.7056 17.4488C9.89499 16.9102 9.26245 16.1433 8.88802 15.245C8.51359 14.3468 8.41411 13.3576 8.60217 12.4028C8.79024 11.448 9.25739 10.5705 9.94449 9.88131C10.6316 9.19215 11.5077 8.72237 12.462 8.53144C13.4162 8.34051 14.4057 8.43702 15.305 8.80876C16.2044 9.1805 16.9732 9.81074 17.5142 10.6197C18.0552 11.4286 18.3439 12.3799 18.3439 13.3531C18.3439 14.6547 17.8279 15.9031 16.9089 16.8249C15.9899 17.7466 14.743 18.2664 13.4414 18.2703Z" fill="var(--fill-0, white)"/>
</svg>
