<svg preserveAspectRatio="none" width="100%" height="100%" overflow="visible" style="display: block;" viewBox="0 0 35.3333 35.3333" fill="none" xmlns="http://www.w3.org/2000/svg">
<path id="Vector" d="M17.6667 0C20.0094 0 22.2562 0.930652 23.9128 2.58722C25.5693 4.24379 26.5 6.49059 26.5 8.83333C26.5 11.1761 25.5693 13.4229 23.9128 15.0794C22.2562 16.736 20.0094 17.6667 17.6667 17.6667C15.3239 17.6667 13.0771 16.736 11.4206 15.0794C9.76398 13.4229 8.83333 11.1761 8.83333 8.83333C8.83333 6.49059 9.76398 4.24379 11.4206 2.58722C13.0771 0.930652 15.3239 0 17.6667 0ZM17.6667 22.0833C27.4275 22.0833 35.3333 26.0362 35.3333 30.9167V35.3333H0V30.9167C0 26.0362 7.90583 22.0833 17.6667 22.0833Z" fill="var(--fill-0, white)"/>
</svg>
