<svg width="54" height="54" viewBox="0 0 54 54" fill="none" xmlns="http://www.w3.org/2000/svg">
<path d="M24.75 36H6.75V42.75C6.75 43.9875 7.191 45.0472 8.073 45.9292C8.955 46.8112 10.014 47.2515 11.25 47.25H24.75V36ZM29.25 36V47.25H42.75C43.9875 47.25 45.0472 46.8097 45.9292 45.9292C46.8112 45.0488 47.2515 43.989 47.25 42.75V36H29.25ZM24.75 31.5V20.25H6.75V31.5H24.75ZM29.25 31.5H47.25V20.25H29.25V31.5ZM6.75 15.75H47.25V11.25C47.25 10.0125 46.8097 8.9535 45.9292 8.073C45.0488 7.1925 43.989 6.7515 42.75 6.75H11.25C10.0125 6.75 8.9535 7.191 8.073 8.073C7.1925 8.955 6.7515 10.014 6.75 11.25V15.75Z" fill="white"/>
</svg>
