<svg width="72" height="72" viewBox="0 0 72 72" fill="none" xmlns="http://www.w3.org/2000/svg">
<path fill-rule="evenodd" clip-rule="evenodd" d="M16.758 13.758C15 15.516 15 18.342 15 24V51C15 56.658 15 59.484 16.758 61.242C18.516 63 21.342 63 27 63H45C50.658 63 53.484 63 55.242 61.242C57 59.484 57 56.658 57 51V24C57 18.342 57 15.516 55.242 13.758C53.484 12 50.658 12 45 12H27C21.342 12 18.516 12 16.758 13.758ZM27 24C26.2044 24 25.4413 24.3161 24.8787 24.8787C24.3161 25.4413 24 26.2044 24 27C24 27.7956 24.3161 28.5587 24.8787 29.1213C25.4413 29.6839 26.2044 30 27 30H45C45.7956 30 46.5587 29.6839 47.1213 29.1213C47.6839 28.5587 48 27.7956 48 27C48 26.2044 47.6839 25.4413 47.1213 24.8787C46.5587 24.3161 45.7956 24 45 24H27ZM27 36C26.2044 36 25.4413 36.3161 24.8787 36.8787C24.3161 37.4413 24 38.2044 24 39C24 39.7956 24.3161 40.5587 24.8787 41.1213C25.4413 41.6839 26.2044 42 27 42H45C45.7956 42 46.5587 41.6839 47.1213 41.1213C47.6839 40.5587 48 39.7956 48 39C48 38.2044 47.6839 37.4413 47.1213 36.8787C46.5587 36.3161 45.7956 36 45 36H27ZM27 48C26.2044 48 25.4413 48.3161 24.8787 48.8787C24.3161 49.4413 24 50.2043 24 51C24 51.7957 24.3161 52.5587 24.8787 53.1213C25.4413 53.6839 26.2044 54 27 54H39C39.7956 54 40.5587 53.6839 41.1213 53.1213C41.6839 52.5587 42 51.7957 42 51C42 50.2043 41.6839 49.4413 41.1213 48.8787C40.5587 48.3161 39.7956 48 39 48H27Z" fill="white"/>
</svg>
