<svg width="53" height="53" viewBox="0 0 53 53" fill="none" xmlns="http://www.w3.org/2000/svg">
<path d="M21.5975 21.0528C26.476 21.0528 30.4308 17.098 30.4308 12.2194C30.4308 7.34093 26.476 3.38611 21.5975 3.38611C16.719 3.38611 12.7642 7.34093 12.7642 12.2194C12.7642 17.098 16.719 21.0528 21.5975 21.0528Z" fill="white"/>
<path d="M24.2032 46.8461C23.7167 46.3649 23.3992 45.739 23.2984 45.0621C23.1975 44.3853 23.3187 43.694 23.6438 43.0919L24.4241 41.6197L22.8193 41.1338C22.1649 40.929 21.5952 40.5163 21.1967 39.9583C20.7982 39.4004 20.5925 38.7276 20.611 38.0422V35.0241C20.6098 34.3417 20.8281 33.677 21.2337 33.1282C21.6393 32.5794 22.2108 32.1757 22.8635 31.9766L24.4682 31.4908L23.7027 30.0186C23.3871 29.4246 23.267 28.7463 23.3596 28.0801C23.4521 27.414 23.7525 26.794 24.2179 26.3086C23.0853 26.1604 21.9447 26.0817 20.8024 26.073C17.4285 25.9936 14.0787 26.6596 10.9919 28.0237C7.905 29.3877 5.15716 31.4161 2.94434 33.9641V45.3738C2.94434 45.7643 3.09944 46.1388 3.37554 46.4149C3.65163 46.691 4.0261 46.8461 4.41656 46.8461H24.2032Z" fill="white"/>
<path d="M49.614 34.5383L46.6696 33.655C46.4659 32.9277 46.1794 32.2263 45.8157 31.5644L47.2879 28.8261C47.3448 28.7245 47.3656 28.6066 47.3469 28.4916C47.3282 28.3766 47.271 28.2714 47.1848 28.193L45.0501 26.0436C44.9679 25.9636 44.8631 25.9108 44.7498 25.8923C44.6366 25.8739 44.5204 25.8907 44.4171 25.9405L41.6934 27.4128C41.0232 27.0482 40.3179 26.7523 39.5882 26.5294L38.6901 23.585C38.6506 23.4764 38.5784 23.3828 38.4835 23.3169C38.3886 23.2509 38.2756 23.216 38.1601 23.2169H35.0979C34.9831 23.2201 34.8721 23.2586 34.7799 23.3271C34.6877 23.3956 34.6188 23.4907 34.5826 23.5997L33.6993 26.5442C32.9562 26.7624 32.2401 27.0636 31.5646 27.4422L28.8998 25.97C28.7962 25.9149 28.6779 25.8938 28.5617 25.9097C28.4455 25.9255 28.3371 25.9775 28.2521 26.0583L26.0879 28.1783C26.0027 28.2604 25.9465 28.3681 25.9279 28.485C25.9093 28.6018 25.9293 28.7216 25.9848 28.8261L27.4571 31.5055C27.0622 32.1703 26.7414 32.8763 26.5001 33.6108L23.5557 34.5089C23.4443 34.5411 23.3465 34.6089 23.2774 34.702C23.2083 34.7951 23.1715 34.9082 23.1729 35.0242V38.0422C23.1715 38.1581 23.2083 38.2713 23.2774 38.3644C23.3465 38.4575 23.4443 38.5253 23.5557 38.5575L26.5001 39.4555C26.7209 40.1766 27.017 40.8723 27.3834 41.5314L25.9112 44.3286C25.8557 44.4331 25.8357 44.5529 25.8543 44.6697C25.8729 44.7866 25.9291 44.8943 26.0143 44.9764L28.2079 47.1111C28.293 47.1919 28.4013 47.2439 28.5175 47.2597C28.6338 47.2756 28.7521 47.2545 28.8557 47.1994L31.6087 45.7272C32.2635 46.0805 32.9545 46.3619 33.6698 46.5664L34.5532 49.5844C34.5902 49.6958 34.6613 49.7926 34.7564 49.8613C34.8515 49.93 34.9658 49.967 35.0832 49.9672H38.1012C38.216 49.964 38.327 49.9256 38.4192 49.8571C38.5114 49.7886 38.5803 49.6934 38.6165 49.5844L39.4998 46.5664C40.2062 46.3632 40.8877 46.0818 41.5315 45.7272L44.314 47.1994C44.4176 47.2545 44.5359 47.2756 44.6521 47.2597C44.7684 47.2439 44.8767 47.1919 44.9618 47.1111L47.1112 44.9764C47.192 44.8913 47.244 44.783 47.2599 44.6667C47.2757 44.5505 47.2546 44.4322 47.1996 44.3286L45.7273 41.5608C46.0787 40.9155 46.36 40.2344 46.5665 39.5292L49.5109 38.6311C49.6216 38.5955 49.7188 38.5272 49.7897 38.4352C49.8607 38.3432 49.9021 38.2318 49.9084 38.1158V35.0683C49.912 34.9616 49.8865 34.8559 49.8347 34.7625C49.7828 34.6692 49.7065 34.5917 49.614 34.5383ZM36.6143 41.4872C35.6411 41.4901 34.689 41.2042 33.8784 40.6657C33.0678 40.1271 32.4353 39.3602 32.0609 38.462C31.6864 37.5637 31.587 36.5746 31.775 35.6197C31.9631 34.6649 32.4302 33.7874 33.1173 33.0982C33.8044 32.4091 34.6806 31.9393 35.6348 31.7484C36.5891 31.5574 37.5785 31.6539 38.4779 32.0257C39.3772 32.3974 40.1461 33.0277 40.687 33.8366C41.228 34.6456 41.5168 35.5968 41.5168 36.57C41.5168 37.8716 41.0007 39.1201 40.0818 40.0418C39.1628 40.9635 37.9159 41.4833 36.6143 41.4872Z" fill="white"/>
</svg>
