<svg preserveAspectRatio="none" width="100%" height="100%" overflow="visible" style="display: block;" viewBox="0 0 39.3333 39.3333" fill="none" xmlns="http://www.w3.org/2000/svg">
<path id="Vector" d="M25.3331 12.2917C24.7677 12.2917 24.2965 12.1032 23.9196 11.7263C23.5426 11.3493 23.3542 10.8683 23.3542 10.2832V2.00846C23.3542 1.42337 23.5459 0.942361 23.9294 0.565417C24.3129 0.188472 24.7882 0 25.3552 0H37.3519C37.9206 0 38.3926 0.188472 38.7679 0.565417C39.1432 0.942361 39.3317 1.42337 39.3333 2.00846V10.2832C39.3333 10.8699 39.1416 11.3509 38.7581 11.7263C38.3746 12.1032 37.8993 12.2917 37.3323 12.2917H25.3331ZM1.97896 19.6667C1.41354 19.6667 0.942361 19.4782 0.565417 19.1013C0.188472 18.7243 0 18.2572 0 17.7V1.96667C0 1.40944 0.19175 0.942361 0.57525 0.565417C0.95875 0.188472 1.43403 0 2.00108 0H13.9978C14.5664 0 15.0384 0.188472 15.4138 0.565417C15.7891 0.942361 15.9775 1.40944 15.9792 1.96667V17.7C15.9792 18.2572 15.7874 18.7243 15.4039 19.1013C15.0204 19.4782 14.5451 19.6667 13.9781 19.6667H1.97896ZM25.3331 39.3333C24.7677 39.3333 24.2965 39.1449 23.9196 38.7679C23.5426 38.391 23.3542 37.9239 23.3542 37.3667V21.6333C23.3542 21.0761 23.5459 20.609 23.9294 20.2321C24.3129 19.8551 24.7882 19.6667 25.3552 19.6667H37.3519C37.9206 19.6667 38.3926 19.8551 38.7679 20.2321C39.1432 20.609 39.3317 21.0761 39.3333 21.6333V37.3667C39.3333 37.9239 39.1416 38.391 38.7581 38.7679C38.3746 39.1449 37.8993 39.3333 37.3323 39.3333H25.3331ZM1.97896 39.3333C1.41354 39.3333 0.942361 39.1449 0.565417 38.7679C0.188472 38.391 0 37.91 0 37.3249V29.0501C0 28.465 0.19175 27.984 0.57525 27.6071C0.95875 27.2301 1.43403 27.0417 2.00108 27.0417H13.9978C14.5664 27.0417 15.0384 27.2301 15.4138 27.6071C15.7891 27.984 15.9775 28.465 15.9792 29.0501V37.3249C15.9792 37.9116 15.7874 38.3926 15.4039 38.7679C15.0204 39.1449 14.5451 39.3333 13.9781 39.3333H1.97896Z" fill="var(--fill-0, white)"/>
</svg>
