<svg preserveAspectRatio="none" width="100%" height="100%" overflow="visible" style="display: block;" viewBox="0 0 35 35" fill="none" xmlns="http://www.w3.org/2000/svg">
<g id="weui:delete-on-filled">
<path id="Vector" fill-rule="evenodd" clip-rule="evenodd" d="M14.2538 7.29167L5.48042 5.74583L5.73417 4.30792C5.75089 4.21358 5.78603 4.12346 5.8376 4.04271C5.88916 3.96197 5.95614 3.89217 6.03469 3.83732C6.11324 3.78247 6.20183 3.74364 6.2954 3.72304C6.38897 3.70245 6.48568 3.70049 6.58 3.71729L26.8494 7.29167H26.9777H26.8508L29.556 7.76854C29.6505 7.78509 29.7408 7.82012 29.8217 7.87161C29.9026 7.9231 29.9726 7.99005 30.0276 8.06862C30.0826 8.14719 30.1215 8.23584 30.1422 8.32949C30.1629 8.42314 30.1649 8.51995 30.1481 8.61438L29.8944 10.0494L26.8465 9.51271L25.6798 29.3373C25.6363 30.0794 25.3111 30.7769 24.7706 31.2872C24.2302 31.7976 23.5152 32.0824 22.7719 32.0833H12.2296C11.4855 32.0835 10.7694 31.7992 10.228 31.2887C9.68663 30.7783 9.36082 30.0801 9.31729 29.3373L8.15208 9.47917H26.6583L14.2538 7.29167ZM13.125 13.125L13.8542 26.25H16.0417L15.4583 13.125H13.125ZM19.6875 13.125L18.9583 26.25H21.1458L21.875 13.125H19.6875ZM15.8288 1.64646L21.5746 2.65854C21.6689 2.67526 21.759 2.71041 21.8398 2.76197C21.9205 2.81354 21.9903 2.88051 22.0452 2.95906C22.1 3.03761 22.1389 3.12621 22.1595 3.21977C22.1801 3.31334 22.182 3.41005 22.1652 3.50438L21.9115 4.93938L14.7306 3.67354L14.9844 2.23708C15.0011 2.14275 15.0362 2.05263 15.0878 1.97188C15.1394 1.89113 15.2063 1.82134 15.2849 1.76649C15.3634 1.71164 15.452 1.6728 15.5456 1.65221C15.6392 1.63161 15.7344 1.62966 15.8288 1.64646Z" fill="var(--fill-0, #D20102)"/>
</g>
</svg>
