<svg width="46" height="46" viewBox="0 0 46 46" fill="none" xmlns="http://www.w3.org/2000/svg">
<rect width="46" height="46" fill="white"/>
<path d="M9.96329 6.32504C11.1171 3.83337 15.0789 3.83337 23.0005 3.83337C30.922 3.83337 34.8838 3.83337 36.0376 6.32504C36.1373 6.53715 36.2203 6.75821 36.2868 6.98821C37.0726 9.64662 34.2705 12.7286 28.67 18.8907L24.9171 23L28.67 27.1075C34.2705 33.2715 37.0707 36.3535 36.2868 39.01C36.2204 39.2382 36.1371 39.4611 36.0376 39.677C34.8838 42.1667 30.922 42.1667 23.0005 42.1667C15.0789 42.1667 11.1171 42.1667 9.96329 39.675C9.86399 39.4604 9.7807 39.2388 9.71412 39.0119C8.92829 36.3535 11.7305 33.2715 17.331 27.1094L21.0838 23L17.331 18.8926C11.7305 12.7267 8.93212 9.64662 9.71412 6.99012C9.78057 6.76012 9.86362 6.53971 9.96329 6.32504Z" fill="#1E1E1E"/>
</svg>
