<svg width="46" height="46" viewBox="0 0 46 46" fill="none" xmlns="http://www.w3.org/2000/svg">
<path d="M33.5419 23C36.3377 23 39.019 24.1107 40.996 26.0876C42.9729 28.0646 44.0835 30.7459 44.0835 33.5417C44.0835 36.3375 42.9729 39.0188 40.996 40.9958C39.019 42.9727 36.3377 44.0834 33.5419 44.0834C30.7461 44.0834 28.0647 42.9727 26.0878 40.9958C24.1108 39.0188 23.0002 36.3375 23.0002 33.5417C23.0002 30.7459 24.1108 28.0646 26.0878 26.0876C28.0647 24.1107 30.7461 23 33.5419 23ZM38.6134 29.0299L30.7704 36.8748L28.5585 33.925C28.406 33.7217 28.179 33.5873 27.9274 33.5513C27.6758 33.5154 27.4202 33.5809 27.2169 33.7334C27.0135 33.8859 26.8791 34.1129 26.8432 34.3645C26.8072 34.6161 26.8727 34.8717 27.0252 35.075L29.9002 38.9084C29.9827 39.0183 30.0878 39.1092 30.2085 39.1749C30.3291 39.2406 30.4625 39.2796 30.5996 39.2892C30.7367 39.2989 30.8742 39.2789 31.0029 39.2307C31.1315 39.1825 31.2484 39.1073 31.3454 39.01L39.9704 30.385C40.1449 30.2042 40.2415 29.9621 40.2394 29.7109C40.2372 29.4596 40.1364 29.2192 39.9587 29.0415C39.781 28.8639 39.5407 28.7631 39.2894 28.7609C39.0381 28.7587 38.7941 28.8553 38.6134 29.0299ZM21.1219 32.5834H5.27105L5.07555 32.5968C4.71473 32.6464 4.38622 32.8312 4.15637 33.1137C3.92653 33.3962 3.81251 33.7555 3.83733 34.1189C3.86215 34.4822 4.02398 34.8226 4.29011 35.0713C4.55624 35.3199 4.90683 35.4583 5.27105 35.4584H21.2292C21.0836 34.5073 21.0469 33.5427 21.12 32.5834M22.4865 27.7917H5.27105C4.90683 27.7916 4.55624 27.6532 4.29011 27.4046C4.02398 27.1559 3.86215 26.8156 3.83733 26.4522C3.81251 26.0888 3.92653 25.7296 4.15637 25.4471C4.38622 25.1645 4.71473 24.9798 5.07555 24.9301L5.27105 24.9167H24.5527C23.7306 25.7718 23.0349 26.7399 22.4865 27.7917ZM40.7294 17.25H5.27105L5.07555 17.2635C4.71473 17.3131 4.38622 17.4979 4.15637 17.7804C3.92653 18.0629 3.81251 18.4222 3.83733 18.7855C3.86215 19.1489 4.02398 19.4893 4.29011 19.7379C4.55624 19.9866 4.90683 20.1249 5.27105 20.125H40.7294L40.9249 20.1116C41.2857 20.062 41.6142 19.8772 41.8441 19.5947C42.0739 19.3122 42.1879 18.9529 42.1631 18.5896C42.1383 18.2262 41.9764 17.8858 41.7103 17.6372C41.4442 17.3885 41.0936 17.2502 40.7294 17.25ZM40.7294 9.58337H5.27105L5.07555 9.59679C4.71473 9.64644 4.38622 9.83119 4.15637 10.1137C3.92653 10.3962 3.81251 10.7555 3.83733 11.1189C3.86215 11.4822 4.02398 11.8226 4.29011 12.0713C4.55624 12.3199 4.90683 12.4583 5.27105 12.4584H40.7294L40.9249 12.445C41.2857 12.3953 41.6142 12.2106 41.8441 11.928C42.0739 11.6455 42.1879 11.2863 42.1631 10.9229C42.1383 10.5595 41.9764 10.2191 41.7103 9.97049C41.4442 9.72184 41.0936 9.58349 40.7294 9.58337Z" fill="white"/>
</svg>
