<svg preserveAspectRatio="none" width="100%" height="100%" overflow="visible" style="display: block;" viewBox="0 0 16.983 16.9609" fill="none" xmlns="http://www.w3.org/2000/svg">
<path id="shape" fill-rule="evenodd" clip-rule="evenodd" d="M12.469 13.3307C11.1485 14.4549 9.4368 15.1333 7.56667 15.1333C3.38771 15.1333 0 11.7456 0 7.56667C0 3.38771 3.38771 0 7.56667 0C11.7456 0 15.1333 3.38771 15.1333 7.56667C15.1333 9.42549 14.4631 11.1278 13.351 12.445L16.983 16.077L16.0992 16.9609L12.469 13.3307ZM13.8833 7.56667C13.8833 11.0553 11.0553 13.8833 7.56667 13.8833C4.07807 13.8833 1.25 11.0553 1.25 7.56667C1.25 4.07807 4.07807 1.25 7.56667 1.25C11.0553 1.25 13.8833 4.07807 13.8833 7.56667Z" fill="var(--fill-0, white)" fill-opacity="0.7"/>
</svg>
