<svg preserveAspectRatio="none" width="100%" height="100%" overflow="visible" style="display: block;" viewBox="0 0 36.75 36.75" fill="none" xmlns="http://www.w3.org/2000/svg">
<path id="Vector" d="M0 36.75V28.0729L26.95 1.17396C27.3583 0.799653 27.8095 0.510417 28.3036 0.30625C28.7977 0.102084 29.3163 0 29.8594 0C30.4025 0 30.9299 0.102084 31.4417 0.30625C31.9534 0.510417 32.3958 0.816666 32.7687 1.225L35.576 4.08333C35.9844 4.45764 36.2825 4.9 36.4703 5.41042C36.6581 5.92083 36.7514 6.43125 36.75 6.94167C36.75 7.48611 36.6568 8.00538 36.4703 8.49946C36.2838 8.99354 35.9857 9.44407 35.576 9.85104L8.67708 36.75H0ZM29.8083 9.8L32.6667 6.94167L29.8083 4.08333L26.95 6.94167L29.8083 9.8Z" fill="var(--fill-0, white)"/>
</svg>
