<svg preserveAspectRatio="none" width="100%" height="100%" overflow="visible" style="display: block;" viewBox="0 0 22 20" fill="none" xmlns="http://www.w3.org/2000/svg">
<path id="Vector" d="M0 9V7H2.475C3.04167 5.38333 3.996 4.03333 5.338 2.95C6.68 1.86667 8.234 1.225 10 1.025V0H12V1.025C13.75 1.225 15.296 1.86667 16.638 2.95C17.98 4.03333 18.934 5.38333 19.5 7H22V9H0ZM7 19V11H13.8C14.0333 11 14.2333 11.0667 14.4 11.2C14.5667 11.3333 14.6833 11.4917 14.75 11.675C14.8167 11.8583 14.8293 12.05 14.788 12.25C14.7467 12.45 14.634 12.625 14.45 12.775L12.975 14H9V15.5H13.5L17.55 12.15C17.9167 11.8833 18.3043 11.7167 18.713 11.65C19.1217 11.5833 19.5257 11.6 19.925 11.7C20.3243 11.8 20.7037 11.971 21.063 12.213C21.4223 12.455 21.7263 12.7673 21.975 13.15L14.975 19H7ZM1 20V11H5V20H1Z" fill="var(--fill-0, #743B0E)"/>
</svg>
