<svg width="46" height="46" viewBox="0 0 46 46" fill="none" xmlns="http://www.w3.org/2000/svg">
<path d="M24.0691 1.84131C24.0691 1.84131 22.9047 2.43554 21.7415 3.31061C21.1599 3.74815 20.5713 4.25577 20.1059 4.84038C19.6405 5.42491 19.2612 6.11904 19.3189 6.93069C19.383 7.83272 19.9945 8.50448 20.6468 8.90725C21.2989 9.30993 22.0395 9.55359 22.737 9.79392C23.4345 10.0342 24.0891 10.2713 24.5044 10.5278C24.9197 10.7842 25.0481 10.9503 25.0689 11.2432C25.0713 11.2764 25.0313 11.454 24.8341 11.7017C24.6369 11.9494 24.3197 12.2344 23.9878 12.4842C23.324 12.9835 22.6316 13.3413 22.6316 13.3413L23.3692 14.7802C23.3692 14.7802 24.1622 14.3765 24.96 13.7763C25.3589 13.4763 25.7664 13.127 26.0993 12.709C26.4321 12.2908 26.7276 11.771 26.6819 11.1284C26.6178 10.2263 26.0063 9.55457 25.354 9.1518C24.7018 8.74903 23.9613 8.50547 23.2638 8.26514C22.5663 8.0248 21.9117 7.7878 21.4964 7.53129C21.0811 7.27479 20.9527 7.10876 20.9319 6.81587C20.9175 6.61354 21.0413 6.26171 21.3709 5.84762C21.7006 5.43344 22.1991 4.9897 22.7137 4.60257C23.7428 3.82838 24.8067 3.28025 24.8067 3.28025L24.0691 1.84131ZM12.5691 6.15381C12.5691 6.15381 11.4047 6.74803 10.2415 7.62311C9.65994 8.06065 9.07128 8.56827 8.60589 9.15288C8.1405 9.73741 7.76118 10.4315 7.81886 11.2432C7.88301 12.1452 8.49448 12.817 9.14675 13.2197C9.79893 13.6224 10.5395 13.8661 11.237 14.1064C11.9345 14.3468 12.5891 14.5838 13.0044 14.8403C13.4197 15.0967 13.5481 15.2628 13.5689 15.5557C13.5713 15.5889 13.5313 15.7665 13.3341 16.0142C13.1369 16.2619 12.8197 16.5469 12.4878 16.7967C11.824 17.296 11.1316 17.6538 11.1316 17.6538L11.8692 19.0927C11.8692 19.0927 12.6622 18.689 13.46 18.0888C13.8589 17.7888 14.2664 17.4395 14.5993 17.0214C14.9321 16.6033 15.2276 16.0834 15.1819 15.4409C15.1178 14.5388 14.5063 13.8671 13.854 13.4643C13.2018 13.0615 12.4613 12.818 11.7638 12.5776C11.0663 12.3373 10.4117 12.1003 9.9964 11.8438C9.58105 11.5873 9.45267 11.4213 9.43191 11.1284C9.41754 10.926 9.54125 10.5742 9.87089 10.1601C10.2006 9.74594 10.6991 9.3022 11.2137 8.91507C12.2428 8.14088 13.3067 7.59275 13.3067 7.59275L12.5691 6.15381ZM35.5691 6.15381C35.5691 6.15381 34.4047 6.74803 33.2415 7.62311C32.6599 8.06065 32.0713 8.56827 31.6059 9.15288C31.1405 9.73741 30.7612 10.4315 30.8189 11.2432C30.883 12.1452 31.4945 12.817 32.1468 13.2197C32.7989 13.6224 33.5395 13.8661 34.237 14.1064C34.9345 14.3468 35.5891 14.5838 36.0044 14.8403C36.4197 15.0967 36.5481 15.2628 36.5689 15.5557C36.5713 15.5889 36.5313 15.7665 36.3341 16.0142C36.1369 16.2619 35.8197 16.5469 35.4878 16.7967C34.824 17.296 34.1316 17.6538 34.1316 17.6538L34.8692 19.0927C34.8692 19.0927 35.6622 18.689 36.46 18.0888C36.8589 17.7888 37.2664 17.4395 37.5993 17.0214C37.9321 16.6033 38.2276 16.0834 38.1819 15.4409C38.1178 14.5388 37.5063 13.8671 36.854 13.4643C36.2018 13.0615 35.4613 12.818 34.7638 12.5776C34.0663 12.3373 33.4117 12.1003 32.9964 11.8438C32.5811 11.5873 32.4527 11.4213 32.4319 11.1284C32.4175 10.926 32.5413 10.5742 32.8709 10.1601C33.2006 9.74594 33.6991 9.3022 34.2137 8.91507C35.2428 8.14088 36.3067 7.59275 36.3067 7.59275L35.5691 6.15381ZM23.0004 16.8458C21.8324 16.8458 21.0425 17.3771 20.4388 18.2827C20.1888 18.6576 19.9871 19.1003 19.8355 19.5823C20.8525 19.4379 21.9082 19.3617 23.0004 19.3617C24.0926 19.3617 25.1482 19.4379 26.1653 19.5823C26.0137 19.1003 25.812 18.6576 25.562 18.2827C24.9583 17.3771 24.1684 16.8458 23.0004 16.8458ZM23.0004 20.9786C12.2706 20.9786 5.59298 28.7086 5.16281 36.6117H40.838C40.4077 28.7086 33.7301 20.9785 23.0004 20.9785V20.9786ZM2.00956 37.0282L0.866211 38.1715C2.49418 39.7996 4.31289 39.8458 5.75039 39.8458H40.2504C41.6879 39.8458 43.5065 39.7996 45.1346 38.1715L43.9912 37.0282C42.7442 38.2751 41.6879 38.2289 40.2504 38.2289H5.75039C4.31289 38.2289 3.2565 38.2751 2.00956 37.0282ZM10.136 41.4629L11.9331 44.1586H34.0677L35.8648 41.4629H10.136Z" fill="white"/>
</svg>
