<svg preserveAspectRatio="none" width="100%" height="100%" overflow="visible" style="display: block;" viewBox="0 0 34.4167 41.7917" fill="none" xmlns="http://www.w3.org/2000/svg">
<path id="Vector" fill-rule="evenodd" clip-rule="evenodd" d="M1.44058 1.44058C-1.46528e-07 2.88117 0 5.19692 0 9.83333V31.9583C0 36.5948 -1.46528e-07 38.9105 1.44058 40.3511C2.88117 41.7917 5.19692 41.7917 9.83333 41.7917H24.5833C29.2198 41.7917 31.5355 41.7917 32.9761 40.3511C34.4167 38.9105 34.4167 36.5948 34.4167 31.9583V9.83333C34.4167 5.19692 34.4167 2.88117 32.9761 1.44058C31.5355 -1.46528e-07 29.2198 0 24.5833 0H9.83333C5.19692 0 2.88117 -1.46528e-07 1.44058 1.44058ZM9.83333 9.83333C9.18134 9.83333 8.55606 10.0923 8.09503 10.5534C7.634 11.0144 7.375 11.6397 7.375 12.2917C7.375 12.9437 7.634 13.5689 8.09503 14.03C8.55606 14.491 9.18134 14.75 9.83333 14.75H24.5833C25.2353 14.75 25.8606 14.491 26.3216 14.03C26.7827 13.5689 27.0417 12.9437 27.0417 12.2917C27.0417 11.6397 26.7827 11.0144 26.3216 10.5534C25.8606 10.0923 25.2353 9.83333 24.5833 9.83333H9.83333ZM9.83333 19.6667C9.18134 19.6667 8.55606 19.9257 8.09503 20.3867C7.634 20.8477 7.375 21.473 7.375 22.125C7.375 22.777 7.634 23.4023 8.09503 23.8633C8.55606 24.3243 9.18134 24.5833 9.83333 24.5833H24.5833C25.2353 24.5833 25.8606 24.3243 26.3216 23.8633C26.7827 23.4023 27.0417 22.777 27.0417 22.125C27.0417 21.473 26.7827 20.8477 26.3216 20.3867C25.8606 19.9257 25.2353 19.6667 24.5833 19.6667H9.83333ZM9.83333 29.5C9.18134 29.5 8.55606 29.759 8.09503 30.22C7.634 30.6811 7.375 31.3063 7.375 31.9583C7.375 32.6103 7.634 33.2356 8.09503 33.6966C8.55606 34.1577 9.18134 34.4167 9.83333 34.4167H19.6667C20.3187 34.4167 20.9439 34.1577 21.405 33.6966C21.866 33.2356 22.125 32.6103 22.125 31.9583C22.125 31.3063 21.866 30.6811 21.405 30.22C20.9439 29.759 20.3187 29.5 19.6667 29.5H9.83333Z" fill="var(--fill-0, white)"/>
</svg>
