<svg preserveAspectRatio="none" width="100%" height="100%" overflow="visible" style="display: block;" viewBox="0 0 42.0931 40.202" fill="none" xmlns="http://www.w3.org/2000/svg">
<path id="Vector" d="M21.0455 33.6792L10.8434 39.825C10.3927 40.1118 9.92153 40.2347 9.42986 40.1937C8.9382 40.1528 8.50799 39.9889 8.13924 39.7021C7.77049 39.4153 7.48368 39.0572 7.27882 38.6278C7.07396 38.1984 7.03299 37.7166 7.1559 37.1823L9.86007 25.5667L0.825695 17.7615C0.415973 17.3927 0.160306 16.9723 0.0586947 16.5003C-0.0429164 16.0283 -0.0125971 15.5678 0.149653 15.1188C0.311903 14.6697 0.557736 14.3009 0.887153 14.0125C1.21657 13.7241 1.66726 13.5397 2.23924 13.4594L14.1622 12.4146L18.7715 1.475C18.9764 0.983334 19.2943 0.614583 19.7254 0.36875C20.1564 0.122916 20.5964 0 21.0455 0C21.4945 0 21.9346 0.122916 22.3656 0.36875C22.7966 0.614583 23.1146 0.983334 23.3194 1.475L27.9288 12.4146L39.8517 13.4594C40.4253 13.5413 40.876 13.7257 41.2038 14.0125C41.5316 14.2993 41.7774 14.6681 41.9413 15.1188C42.1052 15.5694 42.1363 16.0308 42.0347 16.5028C41.9331 16.9748 41.6766 17.3943 41.2653 17.7615L32.2309 25.5667L34.9351 37.1823C35.058 37.7149 35.017 38.1968 34.8122 38.6278C34.6073 39.0588 34.3205 39.4169 33.9517 39.7021C33.583 39.9873 33.1528 40.1511 32.6611 40.1937C32.1694 40.2364 31.6983 40.1134 31.2476 39.825L21.0455 33.6792Z" fill="var(--fill-0, white)"/>
</svg>
