<svg preserveAspectRatio="none" width="100%" height="100%" overflow="visible" style="display: block;" viewBox="0 0 20 20" fill="none" xmlns="http://www.w3.org/2000/svg">
<g id="ic-search">
<path id="shape" fill-rule="evenodd" clip-rule="evenodd" d="M14.1356 14.9974C12.8151 16.1216 11.1035 16.8 9.23333 16.8C5.05438 16.8 1.66667 13.4123 1.66667 9.23333C1.66667 5.05438 5.05438 1.66667 9.23333 1.66667C13.4123 1.66667 16.8 5.05438 16.8 9.23333C16.8 11.0922 16.1297 12.7944 15.0177 14.1117L18.6497 17.7437L17.7658 18.6275L14.1356 14.9974ZM15.55 9.23333C15.55 12.7219 12.7219 15.55 9.23333 15.55C5.74473 15.55 2.91667 12.7219 2.91667 9.23333C2.91667 5.74473 5.74473 2.91667 9.23333 2.91667C12.7219 2.91667 15.55 5.74473 15.55 9.23333Z" fill="var(--fill-0, white)" fill-opacity="0.7"/>
</g>
</svg>
