<svg preserveAspectRatio="none" width="100%" height="100%" overflow="visible" style="display: block;" viewBox="0 0 40 43.628" fill="none" xmlns="http://www.w3.org/2000/svg">
<g id="Group">
<g id="Vector">
<path d="M21.164 42.52L21.186 42.516C21.2033 42.5187 21.2147 42.5307 21.22 42.552L21.254 43.406L21.246 43.44L21.222 43.472L21.014 43.62L20.99 43.628L20.96 43.62L20.752 43.472L20.732 43.446L20.722 43.406L20.756 42.55L20.764 42.53C20.7747 42.5167 20.7907 42.5133 20.812 42.52L20.954 42.59L20.982 42.598L21.022 42.59L21.164 42.52Z" fill="var(--fill-0, white)"/>
<path d="M21.69 42.294L21.716 42.29C21.736 42.2953 21.7493 42.31 21.756 42.334L21.824 43.562L21.816 43.59C21.8027 43.6073 21.7833 43.6127 21.758 43.606L21.356 43.42L21.34 43.406L21.33 43.382L21.294 42.522L21.3 42.5L21.32 42.48L21.69 42.294Z" fill="var(--fill-0, white)"/>
<path d="M20.2566 42.2892C20.2667 42.2869 20.2772 42.2887 20.286 42.294L20.654 42.478L20.674 42.498L20.68 42.522L20.646 43.382L20.638 43.404L20.618 43.42L20.216 43.606L20.186 43.61C20.1647 43.602 20.1533 43.586 20.152 43.562L20.22 42.334L20.232 42.306C20.2377 42.2974 20.2465 42.2914 20.2566 42.2892Z" fill="var(--fill-0, white)"/>
</g>
<path id="Vector_2" d="M20 0C31.046 0 40 8.954 40 20C40 31.046 31.046 40 20 40C8.954 40 0 31.046 0 20C0 8.954 8.954 0 20 0ZM20 8C19.4696 8 18.9609 8.21071 18.5858 8.58579C18.2107 8.96086 18 9.46957 18 10V20C18.0001 20.5304 18.2109 21.039 18.586 21.414L24.586 27.414C24.9632 27.7783 25.4684 27.9799 25.9928 27.9753C26.5172 27.9708 27.0188 27.7605 27.3896 27.3896C27.7605 27.0188 27.9708 26.5172 27.9753 25.9928C27.9799 25.4684 27.7783 24.9632 27.414 24.586L22 19.172V10C22 9.46957 21.7893 8.96086 21.4142 8.58579C21.0391 8.21071 20.5304 8 20 8Z" fill="var(--fill-0, white)"/>
</g>
</svg>
