<svg width="54" height="54" viewBox="0 0 54 54" fill="none" xmlns="http://www.w3.org/2000/svg">
<path d="M28.3104 52.335L28.3351 52.3305C28.3546 52.3335 28.3674 52.347 28.3734 52.371L28.4116 53.3317L28.4026 53.37L28.3756 53.406L28.1416 53.5725L28.1146 53.5815L28.0809 53.5725L27.8469 53.406L27.8244 53.3767L27.8131 53.3317L27.8514 52.3687L27.8604 52.3462C27.8724 52.3312 27.8904 52.3275 27.9144 52.335L28.0741 52.4137L28.1056 52.4227L28.1506 52.4137L28.3104 52.335Z" fill="white"/>
<path d="M28.9021 52.0807L28.9314 52.0762C28.9539 52.0822 28.9689 52.0987 28.9764 52.1257L29.0529 53.5072L29.0439 53.5387C29.0289 53.5582 29.0071 53.5642 28.9786 53.5567L28.5264 53.3475L28.5084 53.3317L28.4971 53.3047L28.4566 52.3372L28.4634 52.3125L28.4859 52.29L28.9021 52.0807Z" fill="white"/>
<path d="M27.2895 52.0753C27.3009 52.0728 27.3127 52.0747 27.3226 52.0807L27.7366 52.2877L27.7591 52.3102L27.7659 52.3372L27.7276 53.3047L27.7186 53.3295L27.6961 53.3475L27.2439 53.5567L27.2101 53.5612C27.1861 53.5522 27.1734 53.5342 27.1719 53.5072L27.2484 52.1257L27.2619 52.0942C27.2683 52.0846 27.2782 52.0778 27.2895 52.0753Z" fill="white"/>
<path d="M42.75 22.5C44.5402 22.5 46.2571 23.2112 47.523 24.477C48.7888 25.7429 49.5 27.4598 49.5 29.25V36C49.5 37.7902 48.7888 39.5071 47.523 40.773C46.2571 42.0388 44.5402 42.75 42.75 42.75V44.9235C42.75 47.3085 39.969 48.6113 38.1375 47.0835L32.9355 42.75H27C25.2098 42.75 23.4929 42.0388 22.227 40.773C20.9612 39.5071 20.25 37.7902 20.25 36V29.25C20.25 27.4598 20.9612 25.7429 22.227 24.477C23.4929 23.2112 25.2098 22.5 27 22.5H42.75ZM36 9C37.7902 9 39.5071 9.71116 40.773 10.977C42.0388 12.2429 42.75 13.9598 42.75 15.75V18H24.75C22.3631 18 20.0739 18.9482 18.386 20.636C16.6982 22.3239 15.75 24.6131 15.75 27V36C15.75 38.349 16.65 40.491 18.126 42.093L15.75 43.875C13.896 45.2655 11.25 43.9425 11.25 41.625V38.25C9.45979 38.25 7.7429 37.5388 6.47703 36.273C5.21116 35.0071 4.5 33.2902 4.5 31.5V15.75C4.5 13.9598 5.21116 12.2429 6.47703 10.977C7.7429 9.71116 9.45979 9 11.25 9H36Z" fill="white"/>
</svg>
